<svg width="24" height="24" viewBox="0 0 24 24" fill="none" xmlns="http://www.w3.org/2000/svg">
<style xmlns="http://www.w3.org/2000/svg">@media (prefers-color-scheme:dark){path{stroke:#fff}}</style>
<path d="M18.0893 16.9627C18.0893 16.9627 15.1362 17.0028 11.4944 16.9998C4.96423 16.9946 4.86968 16.9935 4.62693 16.9232C3.40019 16.5683 2.70447 15.1909 3.12123 13.9422C3.1725 13.7886 3.81065 12.6125 4.86944 10.7201C5.78659 9.08105 6.62492 7.58127 6.73244 7.38729C7.1851 6.57062 7.69492 6.15434 8.3906 6.03337C9.08999 5.91177 9.77341 6.13893 10.2713 6.65854C10.5306 6.92915 10.597 7.01645 11.7747 9.10445M18.0893 16.9627C17.2394 16.9724 16.2416 16.0833 16.2416 16.0833C14.2265 14.25 14.2235 13.3029 12.486 10.3675C12.2117 9.88016 11.9769 9.46283 11.7747 9.10445M18.0893 16.9627C19.5456 16.9861 20.2395 16.5336 20.5577 16.1824C20.77 15.9481 20.8416 15.7557 20.9279 15.4515V15.4515C20.9894 15.2345 20.9863 14.8842 20.9411 14.6632C20.783 13.89 20.5156 13.8542 17.6061 8.65695C16.5724 6.81041 16.5899 6.83851 16.3136 6.57693C15.8441 6.13244 15.1245 5.91582 14.497 6.0302C13.9688 6.12644 13.4441 6.46259 13.1349 6.90277C13.0704 6.99468 12.8486 7.36179 12.6421 7.71857L12.2667 8.36726C12.2667 8.36726 11.9668 8.81656 11.7747 9.10445" stroke="black" stroke-width="1.5"/>
</svg>
